<?xml version="1.0" encoding="utf-8"?>
<!-- Generator: Adobe Illustrator 16.0.0, SVG Export Plug-In . SVG Version: 6.00 Build 0)  -->
<!DOCTYPE svg PUBLIC "-//W3C//DTD SVG 1.1//EN" "http://www.w3.org/Graphics/SVG/1.1/DTD/svg11.dtd">
<svg version="1.1" id="Layer_1" xmlns="http://www.w3.org/2000/svg" xmlns:xlink="http://www.w3.org/1999/xlink" x="0px" y="0px"
	 width="72px" height="72px" viewBox="0 0 72 72" enable-background="new 0 0 72 72" xml:space="preserve">
<path fill="#666666" d="M35.048,23.533L12.002,42.514V63c0,1.104,0.896,2,2,2l14.007-0.036c1.101-0.006,1.99-0.899,1.99-2V51
	c0-1.104,0.896-2,2-2h8c1.104,0,2,0.896,2,2v11.955c-0.004,1.104,0.889,2.003,1.993,2.006c0.002,0,0.005,0,0.007,0L58.002,65
	c1.104,0,2-0.896,2-2V42.5L36.961,23.533C36.402,23.083,35.606,23.083,35.048,23.533z M71.452,36.434l-10.45-8.614V10.506
	c0-0.829-0.672-1.5-1.5-1.5h-7c-0.828,0-1.5,0.671-1.5,1.5v9.076l-11.191-9.208c-2.215-1.823-5.41-1.823-7.625,0L0.544,36.434
	c-0.639,0.528-0.729,1.474-0.201,2.111c0,0.001,0,0.001,0,0.002l3.188,3.875c0.526,0.639,1.472,0.731,2.111,0.205
	c0.001,0,0.002-0.002,0.002-0.002l29.403-24.217c0.558-0.45,1.354-0.45,1.913,0l29.403,24.217c0.639,0.528,1.584,0.439,2.112-0.199
	c0,0,0,0,0-0.001l3.188-3.875c0.526-0.64,0.434-1.585-0.206-2.111C71.456,36.437,71.454,36.436,71.452,36.434L71.452,36.434z"/>
</svg>
