<?xml version="1.0" encoding="utf-8"?>
<!-- Generator: Adobe Illustrator 16.0.0, SVG Export Plug-In . SVG Version: 6.00 Build 0)  -->
<!DOCTYPE svg PUBLIC "-//W3C//DTD SVG 1.1//EN" "http://www.w3.org/Graphics/SVG/1.1/DTD/svg11.dtd">
<svg version="1.1" id="Layer_1" focusable="false" xmlns="http://www.w3.org/2000/svg" xmlns:xlink="http://www.w3.org/1999/xlink"
	 x="0px" y="0px" width="72px" height="72px" viewBox="0 0 72 72" enable-background="new 0 0 72 72" xml:space="preserve">
<path fill="#666666" d="M57.659,3.458C51.474-1.742,41.918-0.961,36,5.064c-5.917-6.025-15.474-6.817-21.659-1.605
	c-8.048,6.774-6.871,17.817-1.134,23.67l18.769,19.123c1.07,1.092,2.504,1.701,4.024,1.701c1.53,0,2.953-0.599,4.023-1.69
	l18.77-19.123C64.519,21.287,65.717,10.243,57.659,3.458z M55.133,23.522L36.364,42.646c-0.257,0.258-0.472,0.258-0.728,0
	l-18.77-19.123c-3.906-3.98-4.698-11.514,0.781-16.126C21.81,3.897,28.231,4.422,32.255,8.52L36,12.34l3.745-3.82
	C43.79,4.4,50.211,3.897,54.353,7.386C59.82,11.998,59.007,19.574,55.133,23.522z"/>
<text transform="matrix(1 0 0 1 -246.5 -85.5)" font-family="'MalgunGothicRegular'" font-size="12">찜한가게</text>
</svg>
