<?xml version="1.0" encoding="utf-8"?>
<!-- Generator: Adobe Illustrator 16.0.0, SVG Export Plug-In . SVG Version: 6.00 Build 0)  -->
<!DOCTYPE svg PUBLIC "-//W3C//DTD SVG 1.1//EN" "http://www.w3.org/Graphics/SVG/1.1/DTD/svg11.dtd">
<svg version="1.1" id="Layer_1" focusable="false" xmlns="http://www.w3.org/2000/svg" xmlns:xlink="http://www.w3.org/1999/xlink"
	 x="0px" y="0px" width="72px" height="72px" viewBox="0 0 72 72" enable-background="new 0 0 72 72" xml:space="preserve">
<path fill="#666666" d="M36,1.125C16.734,1.125,1.125,16.734,1.125,36S16.734,70.875,36,70.875S70.875,55.266,70.875,36
	S55.266,1.125,36,1.125z M36,64.125C20.489,64.125,7.875,51.511,7.875,36S20.489,7.875,36,7.875S64.125,20.489,64.125,36
	S51.511,64.125,36,64.125z M24.75,33.75c2.489,0,4.5-2.011,4.5-4.5s-2.011-4.5-4.5-4.5s-4.5,2.011-4.5,4.5S22.261,33.75,24.75,33.75
	z M47.25,33.75c2.489,0,4.5-2.011,4.5-4.5s-2.011-4.5-4.5-4.5s-4.5,2.011-4.5,4.5S44.761,33.75,47.25,33.75z M47.813,43.959
	C44.888,47.475,40.57,49.5,36,49.5s-8.888-2.011-11.813-5.541c-1.195-1.434-3.333-1.617-4.753-0.436
	c-1.435,1.195-1.617,3.318-0.436,4.753c4.219,5.063,10.42,7.96,17.001,7.96s12.783-2.897,17.002-7.96
	c1.195-1.435,0.998-3.558-0.437-4.753C51.146,42.342,49.008,42.525,47.813,43.959z"/>
</svg>
