<?xml version="1.0" encoding="utf-8"?>
<!-- Generator: Adobe Illustrator 16.0.0, SVG Export Plug-In . SVG Version: 6.00 Build 0)  -->
<!DOCTYPE svg PUBLIC "-//W3C//DTD SVG 1.1//EN" "http://www.w3.org/Graphics/SVG/1.1/DTD/svg11.dtd">
<svg version="1.1" id="Layer_1" xmlns="http://www.w3.org/2000/svg" xmlns:xlink="http://www.w3.org/1999/xlink" x="0px" y="0px"
	 width="72px" height="72px" viewBox="0 0 72 72" enable-background="new 0 0 72 72" xml:space="preserve">
<path fill="#FEAEA1" d="M-227.274-271c-4.25,0-8.499,0-12.748,0C-235.773-270-231.524-270-227.274-271z"/>
<g>
	
		<ellipse opacity="0.2" fill="#666666" stroke="#33CCCC" stroke-width="0.844" stroke-miterlimit="10" enable-background="new    " cx="35.937" cy="61.503" rx="13.5" ry="6.33"/>
	<ellipse fill="#666666" cx="35.937" cy="61.503" rx="1.549" ry="0.728"/>
	
		<ellipse opacity="0.5" fill="#666666" stroke="#33CCCC" stroke-width="0.5814" stroke-miterlimit="10" enable-background="new    " cx="35.726" cy="61.503" rx="9.301" ry="4.36"/>
	<g>
		<path fill="#666666" d="M54.025,21.231c-1.021-7.744-6.83-14.147-14.463-15.747C38.938,5.354,38.262,5,37.686,5
			c-0.104,0-0.211,0-0.315,0c-0.896,0-1.793,0-2.689,0c-0.106,0-0.21,0-0.316,0C33.721,5,33,5.343,32.319,5.485
			C23.425,7.344,17.114,15.631,17.764,24.67c0.205,2.842,1.239,5.495,2.283,8.117c0.214,0.538,0.429,1.083,0.644,1.62
			c0.349,0.78,0.697,1.563,1.045,2.343c1.564,3.01,3.089,6.043,4.758,8.998c2.822,4.999,5.853,9.871,8.989,14.678
			c0.379,0.581,0.53,0.581,0.912-0.003c4.953-7.557,9.619-15.278,13.576-23.413c0.045-0.092,0.116-0.171,0.176-0.257
			c0.236-0.828,0.672-1.568,1.039-2.339c0.426-1.076,0.871-2.146,1.272-3.231C53.652,27.973,54.488,24.729,54.025,21.231z
			 M35.94,38.189C27.906,38.177,21.447,31.6,21.475,23.46c0.029-8.051,6.531-14.569,14.521-14.556
			c7.945,0.013,14.427,6.61,14.415,14.672C50.398,31.63,43.893,38.201,35.94,38.189z"/>
		<polygon fill="#666666" points="30,14.493 45.826,23.629 30,32.766 		"/>
	</g>
</g>
</svg>
