<?xml version="1.0" encoding="utf-8"?>
<!-- Generator: Adobe Illustrator 16.0.0, SVG Export Plug-In . SVG Version: 6.00 Build 0)  -->
<!DOCTYPE svg PUBLIC "-//W3C//DTD SVG 1.1//EN" "http://www.w3.org/Graphics/SVG/1.1/DTD/svg11.dtd">
<svg version="1.1" id="Layer_1" xmlns="http://www.w3.org/2000/svg" xmlns:xlink="http://www.w3.org/1999/xlink" x="0px" y="0px"
	 width="72px" height="72px" viewBox="0 0 72 72" enable-background="new 0 0 72 72" xml:space="preserve">
<circle fill="#33CCCC" cx="36.636" cy="36.273" r="34.545"/>
<g>
	<g>
		<g>
			<path fill="#FFFFFF" d="M16.554,21.399c1.135,4.479,5.455,8.901,8.088,12.628c3.19,4.514,5.732,9.946,8.426,14.764
				c0.338,0.604,1.044,0.838,1.694,0.689c1.795-0.411,2.769-2.34,3.805-3.724c2.273-3.032,4.272-6.307,6.478-9.396
				c5.218-7.309,10.891-13.681,17.016-20.21c1.322-1.409-0.795-3.535-2.121-2.121c-4.74,5.052-9.488,9.792-13.598,15.395
				c-1.964,2.677-3.873,5.391-5.791,8.101c-1.259,1.776-4.373,8.556-6.586,9.063c0.565,0.229,1.129,0.459,1.694,0.689
				c-2.317-4.145-4.796-8.203-7.088-12.378c-1.315-2.396-2.92-4.579-4.276-6.952c-1.468-2.568-4.085-4.333-4.849-7.347
				C18.972,18.727,16.078,19.522,16.554,21.399L16.554,21.399z"/>
		</g>
	</g>
	<g>
		<g>
			<path fill="#FFFFFF" d="M19.333,21.697c0.204-0.083,0.407-0.167,0.611-0.25c-0.565-0.229-1.129-0.459-1.694-0.689
				c2.266,3.935,4.812,8.133,6.909,12.182c2.643,5.1,3.838,11.097,8.053,15.304c1.37,1.368,3.492-0.753,2.121-2.121
				c-4.171-4.164-5.435-10.549-8.072-15.64c-1.921-3.708-4.317-7.586-6.42-11.238c-0.362-0.629-1.023-0.798-1.694-0.689
				c-0.953,0.154-1.226,0.37-1.934,1.022C15.786,20.888,17.913,23.004,19.333,21.697L19.333,21.697z"/>
		</g>
	</g>
	<g>
		<g>
			<path fill="#FFFFFF" d="M44.204,36.484c2.208-3.857,5.575-6.742,7.943-10.455c2.278-3.571,3.695-7.937,7.979-9.402
				c1.304-0.446,1.405-1.964,0.358-2.742c-2.981-2.213-7.274,4.514-8.567,6.363c-4.345,6.215-9.205,11.955-12.849,18.63
				c-0.928,1.698,1.663,3.212,2.59,1.514c1.345-2.462,16.386-24.604,17.313-23.917c0.119-0.914,0.238-1.828,0.358-2.742
				c-4.23,1.447-5.854,4.224-8.261,7.962c-2.939,4.564-6.748,8.546-9.454,13.272C40.651,36.652,43.243,38.162,44.204,36.484
				L44.204,36.484z"/>
		</g>
	</g>
	<g>
		<g>
			<path fill="#FFFFFF" d="M36.849,42.485c-0.03,0.03-0.061,0.061-0.091,0.091c0.854,0.354,1.707,0.707,2.561,1.061
				c-0.128,0.286-0.129,0.317-0.004,0.094c-0.058-0.129,0.018-0.238,0.225-0.328c0.22-0.3,0.412-0.616,0.603-0.936
				c0.3-0.505,0.691-1.069,1.101-1.497c1.338-1.396-0.78-3.521-2.121-2.121c-0.641,0.669-1.216,1.508-1.688,2.304
				c-0.474,0.797-1.191,1.479-1.114,2.484c0.097,1.262,1.581,2.04,2.561,1.061c0.03-0.03,0.061-0.061,0.091-0.091
				C40.339,43.237,38.218,41.116,36.849,42.485L36.849,42.485z"/>
		</g>
	</g>
	<g>
		<g>
			<path fill="#FFFFFF" d="M37.887,40.606c-0.591,0.959-1.064,2.083-1.865,2.888c-0.819,0.822-1.522,1.736-2.264,2.627
				c-1.228,1.476,0.882,3.609,2.121,2.121c0.741-0.89,1.452-1.8,2.264-2.627c0.991-1.009,1.6-2.302,2.334-3.495
				C41.494,40.468,38.898,38.963,37.887,40.606L37.887,40.606z"/>
		</g>
	</g>
	<g>
		<g>
			<path fill="#FFFFFF" d="M36.879,46.424c1.553-1.995,3.437-3.667,4.507-6.03c0.792-1.747-1.793-3.273-2.59-1.514
				c-0.966,2.13-2.641,3.626-4.038,5.423C33.585,45.81,35.692,47.949,36.879,46.424L36.879,46.424z"/>
		</g>
	</g>
	<g>
		<g>
			<path fill="#FFFFFF" d="M60.12,16.205c0.097-0.063,0.194-0.123,0.295-0.178c0.147-0.072,0.119-0.06-0.085,0.035
				c-0.533,0.098-0.975-0.154-1.322-0.753c0.186,0.796,1.081,1.258,1.845,1.047c0.812-0.223,1.233-1.049,1.048-1.845
				c-0.203-0.874-0.92-1.385-1.791-1.428c-0.526-0.026-1.073,0.25-1.503,0.532c-0.683,0.448-0.968,1.319-0.538,2.052
				C58.465,16.344,59.436,16.653,60.12,16.205L60.12,16.205z"/>
		</g>
	</g>
</g>
</svg>
